<?xml version="1.0" encoding="utf-8"?>
<svg version="1.1" xmlns:xlink="http://www.w3.org/1999/xlink" width="60px" height="55px" xmlns="http://www.w3.org/2000/svg">
  <g transform="matrix(1 0 0 1 -654 -959 )">
    <path d="M 51.3754646840149 31.4224473889322  C 51.4002478314746 31.4796050922317  51.4126394052045 31.5653416471811  51 31.6796570537802  L 51 52.2564302416212  C 51.4126394052045 52.9994803845155  51.1771995043371 53.6425045466355  50.7063197026022 54.1855027279813  C 50.2354399008674 54.7285009093271  49.6778190830236 55  49.0334572490706 55  L 34 55  L 34 38.5385814497272  L 26 38.5385814497272  L 26 55  L 10.9665427509294 55  C 10.3221809169765 55  9.76456009913259 54.7285009093271  9.29368029739777 54.1855027279813  C 8.82280049566295 53.6425045466355  8.58736059479554 52.9994803845155  9 52.2564302416212  L 9 31.6796570537802  C 8.58736059479554 31.6510782021304  8.59355638166047 31.6082099246558  8.60594795539033 31.5510522213562  C 8.6183395291202 31.4938945180566  8.62453531598513 31.451026240582  8.62453531598513 31.4224473889322  L 30 11.1028838659392  L 51.3754646840149 31.4224473889322  Z M 59.9628252788104 27.7143413873733  C 59.9876084262701 28.1001558846454  59.9008674101611 28.4359573915303  59.7026022304833 28.7217459080281  L 57.3977695167286 31.8939984411535  C 57.1995043370508 32.1512081060016  56.9392812887237 32.3083917900753  56.6171003717472 32.3655494933749  L 56.5055762081784 32.3655494933749  C 56.183395291202 32.3655494933749  55.9231722428749 32.2655235126007  55.724907063197 32.0654715510522  L 30 7.33047544816836  L 4.27509293680297 32.0654715510522  C 3.97769516728625 32.2941023642504  3.68029739776952 32.3941283450247  3.38289962825279 32.3655494933749  C 3.06071871127633 32.3083917900753  2.80049566294919 32.1512081060016  2.60223048327138 31.8939984411535  L 0.297397769516729 28.7217459080281  C 0.0991325898389096 28.4359573915303  0.0123915737298638 28.1001558846454  0.0371747211895911 27.7143413873733  C 0.0619578686493186 27.3285268901013  0.198265179677819 27.0213042348662  0.446096654275093 26.792673421668  L 27.1747211895911 1.11457521434139  C 27.9677819083024 0.371525071447124  28.909541511772 0  30 0  C 31.090458488228 0  32.0322180916977 0.371525071447124  32.8252788104089 1.11457521434139  L 41.8959107806691 9.85970381917381  L 41.8959107806691 1.5003897116134  C 41.8959107806691 1.10028578851649  42.0074349442379 0.771628994544035  42.2304832713755 0.514419329696028  C 42.453531598513 0.257209664848014  42.7385377942999 0.128604832424007  43.0855018587361 0.128604832424007  L 50.2230483271375 0.128604832424007  C 50.5700123915737 0.128604832424007  50.8550185873606 0.257209664848014  51.0780669144981 0.514419329696028  C 51.3011152416357 0.771628994544035  51.4126394052045 1.10028578851649  51 1.5003897116134  L 51 18.9906469212783  L 59.5539033457249 26.792673421668  C 59.8017348203222 27.0213042348662  59.9380421313507 27.3285268901013  59.9628252788104 27.7143413873733  Z " fill-rule="nonzero" fill="#000000" stroke="none" transform="matrix(1 0 0 1 654 959 )" />
  </g>
</svg>