<?xml version="1.0" encoding="utf-8"?>
<svg version="1.1" xmlns:xlink="http://www.w3.org/1999/xlink" width="25px" height="25px" xmlns="http://www.w3.org/2000/svg">
  <g transform="matrix(1 0 0 1 -863 -25 )">
    <path d="M 18.4027777777778 0  C 21.2384259259259 0  23.4375 0.0600961538461536  25 0.180288461538461  L 25 4.14663461538462  L 20.4571759259259 4.14663461538462  C 18.798225308642 4.14663461538462  17.6793981481481 4.32692307692308  17.1006944444444 4.6875  C 16.5219907407407 5.04807692307692  16.2326388888889 5.58894230769231  16.2326388888889 6.31009615384615  L 16.2326388888889 9.14963942307692  L 24.7106481481481 9.14963942307692  L 23.5821759259259 13.5967548076923  L 16 13.5967548076923  L 16 25  L 7.37847222222222 25  L 7.37847222222222 13.5967548076923  L 0 13.5967548076923  L 0 9.14963942307692  L 7.37847222222222 9.14963942307692  L 7.37847222222222 5.87439903846154  C 7.37847222222222 4.01141826923077  8.38155864197531 2.56660657051282  10.3877314814815 1.53996394230769  C 12.3939043209877 0.513321314102566  15.0655864197531 0  18.4027777777778 0  Z " fill-rule="nonzero" fill="#ffffff" stroke="none" transform="matrix(1 0 0 1 863 25 )" />
  </g>
</svg>