<?xml version="1.0" encoding="utf-8"?>
<svg version="1.1" xmlns:xlink="http://www.w3.org/1999/xlink" width="60px" height="55px" xmlns="http://www.w3.org/2000/svg">
  <g transform="matrix(1 0 0 1 -658 -1041 )">
    <path d="M 34.6484375 14.072265625  C 34.8828125 14.287109375  35 14.5616319444444  35 14.8958333333333  L 35 30.9375  C 35 31.2717013888889  34.8828125 31.5462239583333  34.6484375 31.7610677083333  C 34.4140625 31.9759114583333  34.1145833333333 32.0833333333333  33.75 32  L 21.25 32  C 20.8854166666667 32.0833333333333  20.5859375 31.9759114583333  20.3515625 31.7610677083333  C 20.1171875 31.5462239583333  20 31.2717013888889  20 30.9375  L 20 28.6458333333333  C 20 28.3116319444444  20.1171875 28.037109375  20.3515625 27.822265625  C 20.5859375 27.607421875  20.8854166666667 27.5  21.25 27.5  L 30 27.5  L 30 14.8958333333333  C 30 14.5616319444444  30.1171875 14.287109375  30.3515625 14.072265625  C 30.5859375 13.857421875  30.8854166666667 13.75  31.25 13.75  L 33.75 13.75  C 34.1145833333333 13.75  34.4140625 13.857421875  34.6484375 14.072265625  Z M 48.3984375 37.275390625  C 50.2994791666667 34.2914496527778  51.25 31.0329861111111  51.25 27.5  C 51.25 23.9670138888889  50.2994791666667 20.7085503472222  48.3984375 17.724609375  C 46.4973958333333 14.7406684027778  43.9192708333333 12.3773871527778  40.6640625 10.634765625  C 37.4088541666667 8.89214409722222  33.8541666666667 8.02083333333334  30 8.02083333333334  C 26.1458333333333 8.02083333333334  22.5911458333333 8.89214409722222  19.3359375 10.634765625  C 16.0807291666667 12.3773871527778  13.5026041666667 14.7406684027778  11.6015625 17.724609375  C 9.70052083333333 20.7085503472222  8.75 23.9670138888889  8.75 27.5  C 8.75 31.0329861111111  9.70052083333333 34.2914496527778  11.6015625 37.275390625  C 13.5026041666667 40.2593315972222  16.0807291666667 42.6226128472222  19.3359375 44.365234375  C 22.5911458333333 46.1078559027778  26.1458333333333 46.9791666666667  30 46.9791666666667  C 33.8541666666667 46.9791666666667  37.4088541666667 46.1078559027778  40.6640625 44.365234375  C 43.9192708333333 42.6226128472222  46.4973958333333 40.2593315972222  48.3984375 37.275390625  Z M 55.9765625 13.6962890625  C 58.6588541666667 17.9096137152778  60 22.5108506944444  60 27.5  C 60 32.4891493055556  58.6588541666667 37.0903862847222  55.9765625 41.3037109375  C 53.2942708333333 45.5170355902778  49.6549479166667 48.8530815972222  45.05859375 51.3118489583333  C 40.4622395833333 53.7706163194445  35.4427083333333 55  30 55  C 24.5572916666667 55  19.5377604166667 53.7706163194445  14.94140625 51.3118489583333  C 10.3450520833333 48.8530815972222  6.70572916666667 45.5170355902778  4.0234375 41.3037109375  C 1.34114583333333 37.0903862847222  0 32.4891493055556  0 27.5  C 0 22.5108506944444  1.34114583333333 17.9096137152778  4.0234375 13.6962890625  C 6.70572916666667 9.48296440972222  10.3450520833333 6.14691840277777  14.94140625 3.68815104166666  C 19.5377604166667 1.22938368055555  24.5572916666667 0  30 0  C 35.4427083333333 0  40.4622395833333 1.22938368055555  45.05859375 3.68815104166666  C 49.6549479166667 6.14691840277777  53.2942708333333 9.48296440972222  55.9765625 13.6962890625  Z " fill-rule="nonzero" fill="#000000" stroke="none" transform="matrix(1 0 0 1 658 1041 )" />
  </g>
</svg>