<?xml version="1.0" encoding="utf-8"?>
<svg version="1.1" xmlns:xlink="http://www.w3.org/1999/xlink" width="60px" height="55px" xmlns="http://www.w3.org/2000/svg">
  <g transform="matrix(1 0 0 1 -658 -865 )">
    <path d="M 59.8721590909091 42.6171875  C 59.9573863636364 42.7994791666667  60 43.0729166666667  60 43.4375  C 60 44.140625  59.8579545454545 45.05859375  59.5738636363636 46.19140625  C 59.2897727272727 47.32421875  58.9914772727273 48.2161458333333  58.6789772727273 48.8671875  C 58.0823863636364 50.1692708333333  56.3494318181818 51.5494791666667  53.4801136363636 53.0078125  C 50.8096590909091 54.3359375  48.1676136363636 55  45.5539772727273 55  C 44.7869318181818 55  44.0340909090909 54.9544270833333  43.2954545454545 54.86328125  C 42.5568181818182 54.7721354166667  41.7400568181818 54.609375  40.8451704545455 54.375  C 39.9502840909091 54.140625  39.2826704545455 53.9518229166667  38.8423295454545 53.80859375  C 38.4019886363636 53.6653645833333  37.6136363636364 53.3984375  36.4772727272727 53.0078125  C 35.3409090909091 52.6171875  34.6448863636364 52.3828125  34.3892045454545 52.3046875  C 31.6051136363636 51.3932291666667  29.1193181818182 50.3125  26.9318181818182 49.0625  C 23.3238636363636 47.0052083333333  19.5738636363636 44.1927083333333  15.6818181818182 40.625  C 11.7897727272727 37.0572916666667  8.72159090909091 33.6197916666667  6.47727272727273 30.3125  C 5.11363636363636 28.3072916666667  3.93465909090909 26.0286458333333  2.94034090909091 23.4765625  C 2.85511363636364 23.2421875  2.59943181818182 22.6041666666667  2.17329545454545 21.5625  C 1.74715909090909 20.5208333333333  1.45596590909091 19.7981770833333  1.29971590909091 19.39453125  C 1.14346590909091 18.9908854166667  0.9375 18.37890625  0.681818181818182 17.55859375  C 0.426136363636364 16.73828125  0.248579545454545 15.9895833333333  0.149147727272727 15.3125  C 0.0497159090909091 14.6354166666667  0 13.9453125  0 13.2421875  C 0 10.8463541666667  0.724431818181818 8.42447916666666  2.17329545454545 5.9765625  C 3.76420454545455 3.34635416666666  5.26988636363636 1.7578125  6.69034090909091 1.2109375  C 7.40056818181818 0.924479166666662  8.37357954545455 0.651041666666661  9.609375 0.390624999999999  C 10.8451704545455 0.130208333333331  11.8465909090909 0  12.6136363636364 0  C 13.0113636363636 0  13.3096590909091 0.0390625000000011  13.5085227272727 0.117187499999997  C 14.0198863636364 0.273437500000002  14.7727272727273 1.26302083333333  15.7670454545455 3.0859375  C 16.0795454545455 3.58072916666666  16.5056818181818 4.28385416666666  17.0454545454545 5.1953125  C 17.5852272727273 6.10677083333333  18.0823863636364 6.93359375  18.5369318181818 7.67578125  C 18.9914772727273 8.41796875  19.4318181818182 9.11458333333333  19.8579545454545 9.765625  C 19.9431818181818 9.86979166666666  20.1917613636364 10.1953125  20.6036931818182 10.7421875  C 21.015625 11.2890625  21.3210227272727 11.7513020833333  21.5198863636364 12.12890625  C 21.71875 12.5065104166667  21.8181818181818 12.8776041666667  21.8181818181818 13.2421875  C 21.8181818181818 13.7630208333333  21.4133522727273 14.4140625  20.6036931818182 15.1953125  C 19.7940340909091 15.9765625  18.9133522727273 16.6927083333333  17.9616477272727 17.34375  C 17.0099431818182 17.9947916666667  16.1292613636364 18.6848958333333  15.3196022727273 19.4140625  C 14.5099431818182 20.1432291666667  14.1051136363636 20.7421875  14.1051136363636 21.2109375  C 14.1051136363636 21.4453125  14.1761363636364 21.73828125  14.3181818181818 22.08984375  C 14.4602272727273 22.44140625  14.5809659090909 22.7083333333333  14.6803977272727 22.890625  C 14.7798295454545 23.0729166666667  14.9786931818182 23.3854166666667  15.2769886363636 23.828125  C 15.5752840909091 24.2708333333333  15.7386363636364 24.5182291666667  15.7670454545455 24.5703125  C 17.9261363636364 28.1380208333333  20.3977272727273 31.1979166666667  23.1818181818182 33.75  C 25.9659090909091 36.3020833333333  29.3039772727273 38.5677083333333  33.1960227272727 40.546875  C 33.2528409090909 40.5729166666667  33.5227272727273 40.72265625  34.0056818181818 40.99609375  C 34.4886363636364 41.26953125  34.8295454545455 41.4518229166667  35.0284090909091 41.54296875  C 35.2272727272727 41.6341145833333  35.5184659090909 41.7447916666667  35.9019886363636 41.875  C 36.2855113636364 42.0052083333333  36.6051136363636 42.0703125  36.8607954545455 42.0703125  C 37.3721590909091 42.0703125  38.0255681818182 41.69921875  38.8210227272727 40.95703125  C 39.6164772727273 40.21484375  40.3693181818182 39.4075520833333  41.0795454545455 38.53515625  C 41.7897727272727 37.6627604166667  42.5710227272727 36.85546875  43.4232954545455 36.11328125  C 44.2755681818182 35.37109375  44.9857954545455 35  45.5539772727273 35  C 45.9517045454546 35  46.3565340909091 35.0911458333333  46.7684659090909 35.2734375  C 47.1803977272727 35.4557291666667  47.6846590909091 35.7356770833333  48.28125 36.11328125  C 48.8778409090909 36.4908854166667  49.2329545454546 36.71875  49.3465909090909 36.796875  C 50.0568181818182 37.1875  50.8167613636364 37.5911458333333  51.6264204545455 38.0078125  C 52.4360795454545 38.4244791666667  53.3380681818182 38.8802083333333  54.3323863636364 39.375  C 55.3267045454546 39.8697916666667  56.09375 40.2604166666667  56.6335227272727 40.546875  C 58.6221590909091 41.4583333333333  59.7017045454545 42.1484375  59.8721590909091 42.6171875  Z " fill-rule="nonzero" fill="#000000" stroke="none" transform="matrix(1 0 0 1 658 865 )" />
  </g>
</svg>