<?xml version="1.0" encoding="utf-8"?>
<svg version="1.1" xmlns:xlink="http://www.w3.org/1999/xlink" width="25px" height="25px" xmlns="http://www.w3.org/2000/svg">
  <g transform="matrix(1 0 0 1 -903 -25 )">
    <path d="M 22.0494923857868 3.9453125  C 23.0329949238579 3.81510416666667  24.0164974619289 3.48958333333333  25 2.96875  C 24.2914551607445 4.24479166666666  23.4348561759729 5.33203125  22.4302030456853 6.23046875  C 22.4407783417936 6.41276041666667  22.4460659898477 6.68619791666666  22.4460659898477 7.05078125  C 22.4460659898477 8.74348958333333  22.2451353637902 10.4329427083333  21.8432741116751 12.119140625  C 21.4414128595601 13.8053385416667  20.8306895093063 15.4231770833333  20.0111040609137 16.97265625  C 19.1915186125212 18.5221354166667  18.2159475465313 19.892578125  17.0843908629442 21.083984375  C 15.952834179357 22.275390625  14.5886209813875 23.2259114583333  12.9917512690355 23.935546875  C 11.3948815566836 24.6451822916667  9.68697123519459 25  7.86802030456853 25  C 5.00211505922166 25  2.37944162436548 24.0559895833333  0 22.16796875  C 0.370135363790186 22.2200520833333  0.782571912013536 22.24609375  1.23730964467005 22.24609375  C 3.61675126903553 22.24609375  5.73709813874788 21.34765625  7.59835025380711 19.55078125  C 6.48794416243655 19.5247395833333  5.49386632825719 19.1048177083333  4.61611675126904 18.291015625  C 3.73836717428088 17.4772135416667  3.13557529610829 16.4388020833333  2.80774111675127 15.17578125  C 3.15672588832487 15.2408854166667  3.47927241962775 15.2734375  3.7753807106599 15.2734375  C 4.23011844331641 15.2734375  4.67956852791878 15.2018229166667  5.12373096446701 15.05859375  C 3.93929780033841 14.7591145833333  2.95843908629442 14.033203125  2.18115482233503 12.880859375  C 1.40387055837563 11.728515625  1.01522842639594 10.390625  1.01522842639594 8.8671875  L 1.01522842639594 8.7890625  C 1.73434856175973 9.28385416666667  2.50634517766497 9.55078125  3.33121827411168 9.58984375  C 2.63324873096447 9.01692708333333  2.07804568527919 8.26822916666667  1.66560913705584 7.34375  C 1.25317258883249 6.41927083333333  1.04695431472081 5.41666666666666  1.04695431472081 4.3359375  C 1.04695431472081 3.19010416666667  1.27961082910322 2.12890625  1.74492385786802 1.15234375  C 3.02453468697124 3.09244791666667  4.58174703891709 4.64518229166667  6.41656091370558 5.810546875  C 8.25137478849408 6.97591145833333  10.2157360406091 7.62369791666667  12.3096446700508 7.75390625  C 12.2250423011844 7.25911458333333  12.1827411167513 6.77734375  12.1827411167513 6.30859375  C 12.1827411167513 4.56380208333333  12.682423857868 3.076171875  13.6817893401015 1.845703125  C 14.681154822335 0.615234375000001  15.8893824027073 0  17.3064720812183 0  C 18.787013536379 0  20.0348984771574 0.664062500000001  21.0501269035533 1.9921875  C 22.202834179357 1.71875  23.2868020304569 1.2109375  24.3020304568528 0.468750000000001  C 23.910744500846 1.96614583333333  23.1598984771574 3.125  22.0494923857868 3.9453125  Z " fill-rule="nonzero" fill="#ffffff" stroke="none" transform="matrix(1 0 0 1 903 25 )" />
  </g>
</svg>